<svg xmlns="http://www.w3.org/2000/svg" viewBox="-0.0266878604888916 -0.011352062225341797 109.5517807006836 109.50591278076172"><path d="M52.38 0C70.06.06 82.89 5.67 93.6 16.08a55.74 55.74 0 0 1 11.69 17.57c1.07 2.37.5 3.77-1.37 5.3-11.68 9.53-24.5 11.53-38.63 6.31C56.39 42 48 37.4 39 34.49c-13.25-4.26-24.92-1.72-35 7.88-.56.53-1.08 1.66-2 1.15s-.28-1.54-.07-2.3C6.11 26.08 14.78 14.38 28.67 6.75 36.86 2.25 45.57-.2 52.38 0z" fill="#1565C0"></path><path d="M80.73 99.7a41.52 41.52 0 0 1-29.68-12.17C45.5 82.19 41 76 36 70.17c-6.37-7.58-13.88-13.31-24-15.07a43.69 43.69 0 0 0-9.2-.42c-2.28.09-2.9-.84-2.82-2.94A6.16 6.16 0 0 1 3.43 46c8-4.69 16.31-7.11 25.54-5.33 6.2 1.19 11.83 3.9 17.31 7 7.7 4.29 15.1 9.15 23.48 12.14a40.67 40.67 0 0 0 28.57 0 49.73 49.73 0 0 0 8.8-4.14c2-1.19 2.45-.89 2.39 1.46a52 52 0 0 1-7.52 25.2 52.76 52.76 0 0 1-13.15 15.2c-2.74 2.13-2.69 2.19-8.12 2.17z" fill="#5AA1DF"></path><path d="M54.65 109.47c-19.81-.35-35.06-9.12-46-25.47-4.83-7.32-7.22-15.64-8.3-24.35-.29-2.33.82-2.86 2.88-2.84 11.9.12 21.34 4.85 28.34 14.58 4.37 6.08 8 12.62 12.68 18.52A47.62 47.62 0 0 0 67 106.32c.66.22 1.76.15 1.69 1.1s-1.13.83-1.82 1a52.9 52.9 0 0 1-12.22 1.05z" fill="#698592"></path></svg>
